/* XPM */
static char *result[] = {
/* columns rows colors chars-per-pixel */
"50 50 95 2 ",
"   c #E28700",
".  c #E38C01",
"X  c #E38F08",
"o  c #E39103",
"O  c #E19D03",
"+  c #E39B0D",
"@  c #E59611",
"#  c #E59D14",
"$  c #E7AB08",
"%  c #EBAB0E",
"&  c #EEBD0C",
"*  c #FBB40B",
"=  c #E4A514",
"-  c #E3A916",
";  c #EBAC13",
":  c #E5A51A",
">  c #E4AE19",
",  c #EAAC1E",
"<  c #F3AE12",
"1  c #F0AB19",
"2  c #E5B117",
"3  c #EBBC13",
"4  c #E5B21C",
"5  c #E8B51C",
"6  c #EBBA1C",
"7  c #F2B312",
"8  c #F5B318",
"9  c #F5BC1C",
"0  c #EA982D",
"q  c #E6A521",
"w  c #E6AD24",
"e  c #EAAC22",
"r  c #E3A42F",
"t  c #EDAA2A",
"y  c #F0AB20",
"u  c #E7B421",
"i  c #E9B623",
"p  c #E9B923",
"a  c #ECBC2A",
"s  c #F1B820",
"d  c #E6A533",
"f  c #E8A032",
"g  c #EFAE30",
"h  c #E4A839",
"j  c #E9AD3A",
"k  c #EAB434",
"l  c #EDBC31",
"z  c #E7B43C",
"x  c #EEBE3A",
"c  c #F3B035",
"v  c #F2C500",
"b  c #F1C20F",
"n  c #FDCF08",
"m  c #EEC113",
"M  c #EFC21A",
"N  c #F2C41B",
"B  c #F2C819",
"V  c #FCCC1D",
"C  c #FFD112",
"Z  c #FED01B",
"A  c #EDC027",
"S  c #EEC12D",
"D  c #F2C524",
"F  c #F6C923",
"G  c #FACD23",
"H  c #F5C62E",
"J  c #F5CA2C",
"K  c #FBCF2A",
"L  c #FCD225",
"P  c #FCD029",
"I  c #EEC235",
"U  c #EFC039",
"Y  c #F2C735",
"T  c #F5CB33",
"R  c #F7CF3B",
"E  c #F9D33A",
"W  c #FFE23F",
"Q  c #F5CC42",
"!  c #F1C548",
"~  c #F9D344",
"^  c #FAD64C",
"/  c #FAD84E",
"(  c #F6D253",
")  c #FBDA53",
"_  c #F7D358",
"`  c #FDDE5E",
"'  c #FEE15E",
"]  c #FDDF61",
"[  c #FEE262",
"{  c #FFEB65",
"}  c #FDE56A",
"|  c #FCEC6F",
" . c #FFF066",
".. c #FFF769",
"X. c None",
/* pixels */
"X.X.X.X.X.X.X.X.X.X.X.X.X.X.X.X.X.X.X.X.X.X.X.X.X.X.X.X.X.X.X.X.X.X.X.X.X.X.X.X.X.X.X.X.X.X.X.X.X.X.",
"X.X.X.X.X.X.X.X.X.X.X.X.X.X.X.X.X.X.X.X.X.X.X.X.X.X.X.X.X.X.X.X.X.X.X.X.X.X.X.X.X.X.X.X.X.X.X.X.X.X.",
"X.X.X.X.X.X.X.X.X.X.X.X.X.X.X.X.X.X.X.X.X.X.X.X.X.X.X.X.X.X.X.X.X.X.X.X.X.X.X.X.X.X.X.X.X.X.X.X.X.X.",
"X.X.X.X.X.X.X.X.X.X.X.X.X.X.X.X.X.X.X.X.X.X.X.X.X.X.X.X.X.X.X.X.X.X.X.X.X.X.X.X.X.X.X.X.X.X.X.X.X.X.",
"X.X.X.X.X.X.X.X.X.X.X.X.X.X.X.X.X.X.X.X.X.X.X.X.X.X.X.X.X.X.X.X.X.X.X.X.X.X.X.X.X.X.X.X.X.X.X.X.X.X.",
"X.X.X.X.X.X.X.X.X.X.X.X.X.X.X.X.X.X.X.X.X.X.X.X.X.X.X.X.X.X.X.X.X.X.X.X.X.X.X.X.X.X.X.X.X.X.X.X.X.X.",
"X.X.X.X.X.X.X.X.X.X.X.X.X.X.X.X.X.X.X.X.X.X.X.X.X.X.X.X.X.X.X.X.X.X.X.X.X.X.X.X.X.X.X.X.X.X.X.X.X.X.",
"X.X.X.X.X.X.X.X.X.X.X.X.X.X.X.X.X.X.X.X.X.X.X.X.X.X.X.X.X.X.X.X.X.X.X.X.X.X.X.X.X.X.X.X.X.X.X.X.X.X.",
"X.X.X.X.X.X.X.X.X.X.X.X.X.X.X.X.X.X.X.X.X.X.X.X.X.X.X.X.X.X.X.X.X.X.X.X.X.X.X.X.X.X.X.X.X.X.X.X.X.X.",
"X.X.X.X.X.X.X.X.X.X.X.X.X.X.X.X.X.X.X.X.X.X.X.X.X.X.X.X.X.X.X.X.X.X.X.X.X.X.X.X.X.X.X.X.X.X.X.X.X.X.",
"X.X.X.X.X.X.X.X.X.X.X.X.X.X.X.X.X.X.X.X.X.X.X.X.X.X.X.X.X.X.X.X.X.X.X.X.X.X.X.X.X.X.X.X.X.X.X.X.X.X.",
"X.X.X.X.X.X.X.X.X.X.X.X.X.X.X.X.X.X.X.X.X.X.X.X.X.{ } ' [ { X.X.X.X.X.X.X.X.X.X.X.X.X.X.X.X.X.X.X.X.",
"X.X.X.X.X.X.X.X.X.X.X.X.X.X.X.X.X.X.X.X.} { [ {  . .{ { { [ { X.X.X.X.X.X.X.X.X.X.X.X.X.X.X.X.X.X.X.",
"X.X.X.X.X.X.X.X.X.X.X.X.X.X.X.X.X.[ { { { { [ [ ] ` ] ` ` ` { [ X.X.X.X.X.X.X.X.X.X.X.X.X.X.X.X.X.X.",
"X.X.X.X.X.X.X.X.X.X.X.X.X.X.X.[ { { [ [ ` ` ` ` ) ) ) ' ' ' ` { } X.X.X.X.X.X.X.X.X.X.X.X.X.X.X.X.X.",
"X.X.X.X.X.X.X.X.X.X.X.X.X.} } { ` ` ] ` ` ' ` H F E ^ ` ` ' ' [ ` X.X.X.X.X.X.X.X.X.X.X.X.X.X.X.X.X.",
"X.X.X.X.X.X.X.X.X.X.X.X.}  .` ` ] ] ] ` ` ` ' Q N J ~ / ` ` ` ` [ X.X.X.X.X.X.X.X.X.X.X.X.X.X.X.X.X.",
"X.X.X.X.X.X.X.X.X.X.X.) ' ` ] ` ) ) ` ` ` ` ` [ ) ) ) ` ` ` ` [ ` ..| X.X.X.X.X.X.X.X.X.X.X.X.X.X.X.",
"X.X.X.X.X.X.X.X.X.X.X.C b F E T v J ) [ ` [ ] ` [ ] ` ` ` ` ` [ ` ` { X.X.X.X.X.X.X.X.X.X.X.X.X.X.X.",
"X.X.X.X.X.X.X.X.X.X.X.V 6 6 6 B B T ) ~ ^ ) ` ' [ ] ] ' ` ` ` ` ' ` [ { X.X.X.X.X.X.X.X.X.X.X.X.X.X.",
"X.X.X.X.X.X.X.X.X.X.X.V 4 u 5 Y ( E ~ N & M D T ~ / ) ` [ ] [ ` ` ] ` { ] X.X.X.X.X.X.X.X.X.X.X.X.X.",
"X.X.X.X.X.X.X.X.X.X.X.V 4 4 2 p Y T a 5 u 5 4 3 3 m M J R ~ ) ` ^ / ] ] { X.X.X.X.X.X.X.X.X.X.X.X.X.",
"X.X.X.X.X.X.X.X.X.X.X.F 5 4 4 4 2 4 4 > 4 u > u u p 5 5 3 & m T _ R / ) [ } X.X.X.X.X.X.X.X.X.X.X.X.",
"X.X.X.X.X.X.X.X.X.X.X.V 4 4 > > > 4 > 4 > > > u = > 4 4 u u 5 2 a a M B F W / X.X.X.X.X.X.X.X.X.X.X.",
"X.X.X.X.X.X.X.X.X.X.X.V 5 4 4 4 4 > > 4 4 4 > 4 : # 4 4 4 5 u 4 > 4 5 p 3 n G X.X.X.X.X.X.X.X.X.X.X.",
"X.X.X.X.X.X.X.X.X.X.X.F 4 4 4 4 p 4 4 4 > > > 4 p i u p u : w a i u u p p P P X.X.X.X.X.X.X.X.X.X.X.",
"X.X.X.X.X.X.X.X.X.X.X.F 5 5 +   @ u 4 4 4 > > 4 4 4 4 : .     # p 4 4 5 i V K X.X.X.X.X.X.X.X.X.X.X.",
"X.X.X.X.X.X.X.X.X.X.X.F 4 5 : # . # 4 > 4 4 > 4 > > 5 > o o .   = 4 > 5 u Z L X.X.X.X.X.X.X.X.X.X.X.",
"X.X.X.X.X.X.X.X.X.X.X.J 4 4 S I : 4 4 4 4 4 4 > 4 > 5 u = q + o + u 4 5 5 V L X.X.X.X.X.X.X.X.X.X.X.",
"X.X.X.X.X.X.X.X.X.X.X.D 5 4 p S A u > > 4 - - 4 > 4 5 a x ! O + > 4 4 4 5 V K X.X.X.X.X.X.X.X.X.X.X.",
"X.X.X.X.X.X.X.X.X.X.X.N 5 4 > 4 4 - > 4 > o   - 4 > > p Y l > u p 4 4 5 p V L X.X.X.X.X.X.X.X.X.X.X.",
"X.X.X.X.X.X.X.X.X.X.X.A 6 4 > > - 4 - > : + o . > > > 4 p a H p 4 > 4 5 5 V K X.X.X.X.X.X.X.X.X.X.X.",
"X.X.X.X.X.X.X.X.X.X.X.D 6 > > > > > > > 4 = = . + > > > > 4 2 > 4 4 4 4 5 V L X.X.X.X.X.X.X.X.X.X.X.",
"X.X.X.X.X.X.X.X.X.X.X.J V 5 > > - % $ : 5 p 2 + + 2 > > > > > > > > 2 4 p V K X.X.X.X.X.X.X.X.X.X.X.",
"X.X.X.X.X.X.X.X.X.X.X.X.H i 4 9 < 0 f ; - 5 4 : - - - - > > > > > > 5 p u Z P X.X.X.X.X.X.X.X.X.X.X.",
"X.X.X.X.X.X.X.X.X.X.X.X.X.X.X.X.j X.X.c * = % = = - - - - - - > > > = = p Z P X.X.X.X.X.X.X.X.X.X.X.",
"X.X.X.X.X.X.X.X.X.X.X.X.X.X.X.X.X.X.X.X.h d t y ; < ; % = : - > > 5 : X , Z P X.X.X.X.X.X.X.X.X.X.X.",
"X.X.X.X.X.X.X.X.X.X.X.X.X.X.X.X.X.X.X.X.X.X.X.X.X.d g e , 7 8 ; - 4 Y a u Z L X.X.X.X.X.X.X.X.X.X.X.",
"X.X.X.X.X.X.X.X.X.X.X.X.X.X.X.X.X.X.X.X.X.X.X.X.X.X.X.X.X.X.k w w s N N 6 Z P X.X.X.X.X.X.X.X.X.X.X.",
"X.X.X.X.X.X.X.X.X.X.X.X.X.X.X.X.X.X.X.X.X.X.X.X.X.X.X.X.X.X.X.X.X.X.z k a L E X.X.X.X.X.X.X.X.X.X.X.",
"X.X.X.X.X.X.X.X.X.X.X.X.X.X.X.X.X.X.X.X.X.X.X.X.X.X.X.X.X.X.X.X.X.X.X.X.X.X.X.X.X.X.X.X.X.X.X.X.X.X.",
"X.X.X.X.X.X.X.X.X.X.X.X.X.X.X.X.X.X.X.X.X.X.X.X.X.X.X.X.X.X.X.X.X.X.X.X.X.X.X.X.X.X.X.X.X.X.X.X.X.X.",
"X.X.X.X.X.X.X.X.X.X.X.X.X.X.X.X.X.X.X.X.X.X.X.X.X.X.X.X.X.X.X.X.X.X.X.X.X.X.X.X.X.X.X.X.X.X.X.X.X.X.",
"X.X.X.X.X.X.X.X.X.X.X.X.X.X.X.X.X.X.X.X.X.X.X.X.X.X.X.X.X.X.X.X.X.X.X.X.X.X.X.X.X.X.X.X.X.X.X.X.X.X.",
"X.X.X.X.X.X.X.X.X.X.X.X.X.X.X.X.X.X.X.X.X.X.X.X.X.X.X.X.X.X.X.X.X.X.X.X.X.X.X.X.X.X.X.X.X.X.X.X.X.X.",
"X.X.X.X.X.X.X.X.X.X.X.X.X.X.X.X.X.X.X.X.X.X.X.X.X.X.X.X.X.X.X.X.X.X.X.X.X.X.X.X.X.X.X.X.X.X.X.X.X.X.",
"X.X.X.X.X.X.X.X.X.X.X.X.X.X.X.X.X.X.X.X.X.X.X.X.X.X.X.X.X.X.X.X.X.X.X.X.X.X.X.X.X.X.X.X.X.X.X.X.X.X.",
"X.X.X.X.X.X.X.X.X.X.X.X.X.X.X.X.X.X.X.X.X.X.X.X.X.X.X.X.X.X.X.X.X.X.X.X.X.X.X.X.X.X.X.X.X.X.X.X.X.X.",
"X.X.X.X.X.X.X.X.X.X.X.X.X.X.X.X.X.X.X.X.X.X.X.X.X.X.X.X.X.X.X.X.X.X.X.X.X.X.X.X.X.X.X.X.X.X.X.X.X.X.",
"X.X.X.X.X.X.X.X.X.X.X.X.X.X.X.X.X.X.X.X.X.X.X.X.X.X.X.X.X.X.X.X.X.X.X.X.X.X.X.X.X.X.X.X.X.X.X.X.X.X."
};
