/* XPM */
static char *result[] = {
/* columns rows colors chars-per-pixel */
"64 64 186 2 ",
"   c #54070B",
".  c #5C0E0E",
"X  c #540D14",
"o  c #561516",
"O  c #5B1513",
"+  c #5C1916",
"@  c #54151A",
"#  c #581718",
"$  c #5C1C1B",
"%  c #7C1D0F",
"&  c #741E0D",
"*  c #621713",
"=  c #651B14",
"-  c #6A1D14",
";  c #631D1A",
":  c #6B1F19",
">  c #711E14",
",  c #5E211F",
"<  c #6C2017",
"1  c #64201D",
"2  c #6C221C",
"3  c #742216",
"4  c #7C2316",
"5  c #7C2817",
"6  c #74251A",
"7  c #7B261A",
"8  c #75291E",
"9  c #7C2A1D",
"0  c #581E23",
"q  c #5D2A2C",
"w  c #5F2B32",
"e  c #642321",
"r  c #6B2621",
"t  c #622E2E",
"y  c #692E2B",
"u  c #6D2A23",
"i  c #712721",
"p  c #752A21",
"a  c #7B2C22",
"s  c #732D28",
"d  c #6F342F",
"f  c #76322A",
"g  c #7A3028",
"h  c #623236",
"j  c #743733",
"k  c #743833",
"l  c #7E3B34",
"z  c #753E3A",
"x  c #7D3E39",
"c  c #812615",
"v  c #882B17",
"b  c #822719",
"n  c #832C1C",
"m  c #8B2D1B",
"M  c #902E19",
"N  c #942D12",
"B  c #87311F",
"V  c #8C311E",
"C  c #943117",
"Z  c #9F3A14",
"A  c #94331D",
"S  c #99351E",
"D  c #9B391E",
"F  c #A33A15",
"G  c #A1371F",
"H  c #A33D1D",
"J  c #A93E1E",
"K  c #822E21",
"L  c #843123",
"P  c #8B3423",
"I  c #8E3927",
"U  c #823529",
"Y  c #883628",
"T  c #83382B",
"R  c #8D3B2B",
"E  c #923622",
"W  c #9B3620",
"Q  c #953A25",
"!  c #9C3B23",
"~  c #933D2B",
"^  c #9B3F29",
"/  c #833A31",
"(  c #8F3E32",
")  c #A43E21",
"_  c #AA3F21",
"`  c #AB401F",
"'  c #B3431F",
"]  c #9E4027",
"[  c #96412F",
"{  c #9C422C",
"}  c #8F4134",
"|  c #8B433A",
" . c #944332",
".. c #9C4532",
"X. c #9D4835",
"o. c #96483C",
"O. c #9C4939",
"+. c #9A513F",
"@. c #A64123",
"#. c #AA4324",
"$. c #A5452B",
"%. c #A9462A",
"&. c #A7492E",
"*. c #AB492D",
"=. c #B14525",
"-. c #BB4724",
";. c #BC4825",
":. c #B24628",
">. c #B44A2B",
",. c #B94C2D",
"<. c #A14731",
"1. c #A44A34",
"2. c #AB4D34",
"3. c #A44E3A",
"4. c #A94F39",
"5. c #B24E32",
"6. c #B94F31",
"7. c #AB5037",
"8. c #A5513D",
"9. c #AC523B",
"0. c #B45136",
"q. c #BB5134",
"w. c #B3553C",
"e. c #BB563A",
"r. c #B6593F",
"t. c #BC593E",
"y. c #C15234",
"u. c #C15739",
"i. c #C25A3D",
"p. c #CC5A3A",
"a. c #824841",
"s. c #934D41",
"d. c #88514E",
"f. c #915044",
"g. c #9B5144",
"h. c #91564C",
"j. c #8A5753",
"k. c #945B52",
"l. c #A35443",
"z. c #AC5641",
"x. c #AE5B44",
"c. c #AE5D49",
"v. c #B45B44",
"b. c #BC5B42",
"n. c #B15F48",
"m. c #B4624B",
"M. c #BD6048",
"N. c #BA684F",
"B. c #AE6453",
"V. c #AC6856",
"C. c #A2605A",
"Z. c #AD6758",
"A. c #B66A53",
"S. c #BA6C56",
"D. c #B96E59",
"F. c #B46857",
"G. c #BF725D",
"H. c #B47061",
"J. c #AB7D77",
"K. c #C45E42",
"L. c #C95F41",
"P. c #C46045",
"I. c #CA6245",
"U. c #C5644A",
"Y. c #CC664A",
"T. c #C66A4F",
"R. c #CE684C",
"E. c #D36446",
"W. c #D16649",
"Q. c #D96748",
"!. c #D36A4C",
"~. c #DB6D4F",
"^. c #C06B54",
"/. c #CB6D53",
"(. c #D46E52",
"). c #DB6D50",
"_. c #CD745C",
"`. c #D57054",
"'. c #D9765A",
"]. c #D77459",
"[. c #E37456",
"{. c #CC7760",
"}. c #CD7C66",
"|. c #DA7E64",
" X c #E67E61",
".X c None",
/* pixels */
".X.X.X.X.X.X.X.X.X.X.X.X.X.X.X.X.X.X.X.X.X.X.X.X.X.X.X.X.X.X.X.X.X.X.X.X.X.X.X.X.X.X.X.X.X.X.X.X.X.X.X.X.X.X.X.X.X.X.X.X.X.X.X.X",
".X.X . .~ .X.X.X.X.X.XI .X . .[ [ .X.X.X~ R .X.X.X.X.X.X[ .X .[ [ [ .X.X.X .~ .X.X.X.X.X.XR .X .[ [  .~ .X.X.XR .X.X.X.X.X.X.X.X",
".X2.[.e.-.! .X.XE.K.L.!.I.L.u.>.,.:.#.q.P.p.{ .X.XI.Y.W.!.I.i.>.>.:.:.=.6.L.p.P .X.XU./.i.W.Y.L.i.>.>.:.=.>.i.L.] .X3./.v.J { .X",
".X1.(.>.#. ..X[ !.0.*.t.*.#.#.@.@.#.#.#.5.w.X..X.X`.0.0.0.>.#.@.@.@.@.@.@.#.*.P .X.X}.^.#.t.5.#.#.@.@.@.@.` 0.0.Z .XC./.b.*.Q .X",
".X1.Y.@.2.f..XX.Y.%.H H H ) @.@.@.@.@.H *.2.g..X.X_.0.) H @.@.@.@.@.@.@.@.@.H L .X.X_.2.H ) H @.@.@.@.@.@.@.@.F } .XH.}.@.1.} .X",
".X1.,.2.v./ .X3.W.%.@.@.@.#.@.@.@.@.@.J 1.1.s..X.Xb.@.@.@.@.@.@.@.@.@.@.@.@.H Y .X.XT.,.@.@.@.@.@.@.@.@.@.@.@.H ( .XD.G.m.z.9 .X",
".X..0.7.9.K .X..L.@.@.@.@.@.@.@.@.@.@.@.#.7.P .X.X=.H @.@.@.@.@.@.@.@.@.@.@.*.} .X.Xt.%.H @.@.@.@.@.@.@.@.@.@.@.Q .X..v.m.D n .X",
".X] v.9.J P .X.X=.@.) @.@.@.) @.@.@.@.@.J *. ..X.X*.@.@.@.@.) @.@.#.@.@.@.) 9.+..X.X#.@.@.@.) ) @.@.@.) @.@.@.@.A .Xl.9.H @.P .X",
".X! *.*.#.a .X.X*.#.@.! ! @.@.#.#.) ) @.#.W n .X.X#.*.#.#.#.@.#.D V D @.@.#.%.~ .X.X@.#.$.) W #.#.#.@.#.! @.%.) n .X$.) @.@.n .X",
".XI J W E 6 .XY :.@.) S m S S W A E I W W W 9 .X.X:.W Q H W ) ) v 3 v V Q E C n .X.X_ ) ) ] L C W W W A v W ) ) n .XR ) ! V 6 .X",
".X.X.X.X.X.X.X.X2 O .X.X.X# @ o 0 q .X.X.X8 .X.X.Xi . .Xh .Xo # + + # .X.X.X; .X.X.Xr * .X.X.Xw   o # X .X.X.X: .X.X.X.X.X; .X.X",
".X.X.X.X.X.X.X.X.X.X.X.X.X.X.X.X.X.X.X.X.X.X.X.X.X.X.X.X.X.X.X.X.X.X.X.X.X.X.X.X.X.X.X.X.X.X.X.X.X.X.X.X.X.X.X.X.X.X.X.X.X.X.X.X",
".X .b.w.b.b.w.0.%.&.@.@.$.2.t.2..X.X( 5.2.w.w.w.e.5.%.%.! { 7.7.5. ..X.Xw.w.v.b.v.0.*.*.@.) ! *.v.0.K .X .u.w.w.0.2.5.w.2.=.~ .X",
".X9.).0.U.t.0.*.#.@.@.@.#.2.t.>.n .X..~.e.e.U.0.0.*.@.#.#.#.>.P.t.^ .X<.~.w.P.b.0.5.@.#.@.@.#.%.0.q.( .X$.].(.T.Y.P.P.P.0.#.I .X",
".X9.Y.) H H @.) ) @.@.@.@.$.#.) a .X1.Y.#.H ) H H ) @.) @.@.) *.*.P .X1.W.%.) H @.) ) @.@.@.@.) ) #.| .X&.).P.*.@.@.@.H H @.a .X",
".X1.i.%.#.@.@.@.@.@.@.#.%.) %.$.a .X9.Y.#.@.@.#.@.@.@.@.@.) %.#.#.U .X{ i.%.#.@.@.@.#.@.@.@.@.@.*.) 9 .X8.P.*.@.@.@.@.@.#.) K .X",
".X{ =.@.@.@.@.@.@.) @.*.) ) #._ U .X2.I.) @.@.@.@.@.@.#.) *.$.@.@.P .X{ =.@.@.@.@.@.@.@.@.@.@.%.#.@.n .X8.I.@.@.@.@.@.@.@.) a .X",
".X^ =.@.@.@.@.@.) %.*.@.) @.) #.P .X .,.) @.@.@.@.@.) @.*.@.) @.#.B .X..#.@.@.@.@.@.@.@.@.@.%.#.@.#.E .X1.t.@.@.@.@.@.@.@.@.a .X",
".X^ #.@.#.@.@.@.#.) ! @.#.@.#.#.K .XO.=.@.@.) ) $.) #.%.$.) @.#.) K .X.X>.@.@.@.@.@.#.) W %.*.@.@.=.P .X$.>.%.%.@.@.@.#.) ) a .X",
".X~ ;.! ) @.@.@.$.b 5 A ) W ! ) a .XR :.) @.S A ) ) ) @.S S ) @.S a .X~ ;.D ) @._ @.H n 7 A W W ! H K .X! :.@.#.@.) @.W S ! a .X",
".XY n 3 7 7 6 2 3 - - - = - : 3 .X.XL n 3 6 6 - f f > - < 6 6 6 5 a .X.Xv 6 6 6 8 s p - = < - - - > p .XP n n 5 3 3 6 & s l .X.X",
".X.X.X.X.X.X.X.X.X.X.X.X.X.X.X.X.X.X.X.X.X.X.X.X.X.X.X.X.X.X.X.X.X.X.X.X.X.X.X.X.X.X.X.X.X.X.X.X.X.X.X.X.X.X.X.X.X.X.X.X.X.X.X.X",
".X.Xx.8.Z.J..X.X .<.3.<.X.1.&.{ { [ [ { X.] .X.X.X .3.3.1.9.2.] ] ^ [ [  .8.X.o..X.XA l.4.{ X.1.<.$.[ ^ [ { <.]  ..XX.B.B....X.X",
".X$. Xb.T.V..X.XW.L.K.(.I.i.e.:.>.=.#.,.L.R.l..X.XW.I.W.(.K.u.>.>.=.=.=.,.i.I. ..X.X}._.i.!.Y.i.i.>.>.=.:.>.L.I.%..XF.|.U.;.L .X",
".X{ `.v.#.g..X.X!.5.@.2.#.H ) @.@.@.@.@.2.w.l..X.XR.5.%.%.%.@.@.) @.#.@.) H $. ..X.X{.w.H *.%.H H ) @.@.#.H *.*.$..XD./.#.%.n .X",
".X1.L.*.w.| .X.XW.*.) H ) #.@.@.@.@.) @.9.9.n .X.XP.0.@.H @.@.@.@.@.@.@.@.#.) P .X.XK.0.` J ) @.@.@.@.@.@.@.@.H  ..X9.u.) #.a .X",
".X1.q.H @.9 .X.XW.*.@.@.@.@.@.@.@.@.@.@.&.$.m .X.X5.@.@.@.@.@.@.@.@.@.) @.#.@.n .X.XP.0.) @.@.@.@.@.@.@.@.@.@.#.~ .X2.q._ ) a .X",
".X{ >.@.) P .X.Xi.*.@.@.@.@.) @.@.@.@.#.@.@.E .X.X#.@.*.#.@.@.@.@.@.) #.*.@.@.E .X.Xw.%.@.&.@.@.@.@.@.@.@.@.%.%.D .X^ #.@.) K .X",
".X{ =.@.#.P .X.X=.#.&.) ) @.) @.) %.*.@.@.@.L .X.X#.@.@.%.@.@.@.@.) @.&.@.) @.Q .X.X) @.@.) $.) @.@.@.@.@.*.$.@.E .X) =.! @.K .X",
".X^ #.@.) n .X.X=.@.#.$.S @.#.#.%.$.W ) #.D n .X.X%.@.) #.*.#.#.S n ^ @.) @.@.P .X.X@.@.@.) Q &.@.@.#.@.] @.@.) n .X^ @.W @.n .X",
".XY W S m r .X.X) A A P L m v E P 5 5 V A A 9 .X.X) A m A E Q A 4 8 7 4 n n m 9 .X.X! S V A b V E M v K 9 m V A n .XK b n A p .X",
".X.X.X.X.X.X.X.X.X.X.X.X.X.X.X.X.X.X.X.X.X.X.X.X.X.X.X.X.X.X.X.X.X.X.X.X.X.X.X.X.X.X.X.X.X.X.X.X.X.X.X.X.X.X.X.X.X.X.X.X.X.X.X.X",
".X.X.X.X.X.X.X.X.X.X.X.X.X.X.X.X.X.X.X.X.X.X.X.X.X.X.X.X.X.X.X.X.X.X.X.X.X.X.X.X.X.X.X.X.X.X.X.X.X.X.X.X.X.X.X.X.XL P .X.X.X.X.X",
".XX.W.P.R.U.L.e.>.>.>.#.*.t.I.5..X.X[ I.t.P.Y.K.L.q.>.>.*.#.e.i.y.} .X[ Y.K.R.Y.L.t.>.>.:.#.#.0.Y.q.a .X~ W.I.I.I.i.i.U.K.-.~ .X",
".Xv.Y.>.b.0.*.$.@.#.@.#.%.@.>.*.T .X2.!.5.0.t.*.*.@.@.@.#.*.*.e.6.Q .X9.W.5.b.0.*.%.@.@.#.@.@.*.0.:.L .XX.(.`.U.U.K.b.e.>.#.I .X",
".Xw.I.#.H H @.` @.) %.#.@.@.) ) .X.X9.I.) ) H H @.@.@.@.%.#.) @.J U .X9.Y.%.H H @.@.@.@.@.@.%.#.H ) a .X..(.K.%.) H H F ) #.K .X",
".X1.q.#.@.@.@.@.@.%.#.@.@.@.#.W 8 .Xv.L.@.@.@.@.@.) @.%.@.@.@.#.) a .X<.e.#.@.@.@.@.@.@.@.%.#.) #.) a .X{ I.5.@.@.#.@.@.@.@.n .X",
".X^ #.@.@.@.@.@.#.$.@.@.@.@.@.) a .X8.i.H @.@.@.@.@.%.@.) @.@.@.#.P .X^ =.#.@.@.@.@.H @.@.#.@.@.@.@.K .X<.L.%.@.@.@.@.) @.@.K .X",
".X^ =.@.@.H 2.2.@.@.@.@.@.@.@.#.L .X! >.@.H $.*.$.) @.@.@.#.) @.#.K .XQ =.@.@.@.@.H &.7.@.@.@.@.@.#.I .X<.i.H @.@.@.$.*.$.) K .X",
".X] =.@.` 7.m.9.J E D @.#.) #.#..X.X{ #.#.&.1.$.7.*.#.@.@.) %.@.W 9 .X! *.#.@.#.` 2.m.8.A @.@.@.#.#.L .X! >.#.#.@.*.7.&.2.&.9 .X",
".X^ :.A &.n.8.@.W 4 5 m W S S W a .XQ =.) 2.l.l.S 4.! D A S ) ) S a .XQ -.S W ) &.c.x.5 4 m W S M ) a .XQ -.@.) @.1.z.c.E 1.T .X",
".X.X3 e z j 1 * < = ; ; O o O - .X.X.X3 y e j.j.j k ; = $ ; O = 7 .X.X.X6 ; = 2 k d r O = ; o O o - .X.X.X9 8 - u r a.k.x l .X.X",
".X.X.X.X.X.X.X.X.X.X.X.X.X.X.X.X.X.X.X.X.X.X.X.X.X.X.X.X.X.X.X.X.X.X.X.X.X.X.X.X.X.X.X.X.X.X.X.X.X.X.X.X.X.X.X.X.X.X.X.X.X.X.X.X",
".X<.S.c.) .X.X.X1.2.9.9.9.w.1.$.$.] ^ 1.2.1.s..X.X4.w.w.w.w.9.$.$.$.] ! 1.w.x.h..X.X<.2.2.w.9.9.2.&.$.] ^ $.0.1.~ .X.Xn.9.! ( .X",
".Xw.].w.' ~ .X..~.t.i.T.e.0.>.#.#.:.*.>.K.i.! .X..).t.Y.P.t.6.#.#.#.#.#.>.0.t.R .X.X!.i.e.Y.t.0.5.#.#.=.#.>.t.i.! .X..[.K.' ! .X",
".X4.Y.@._ L .X1.R.*.H @.) H ) @.@.) %.@.#.#.P .X1.R.&.$.H @.) @.@.@.@.@.#.) H L .X.XY.>.H %.@.H ) ) @.@.@.@.%.#.Q .X.XR.0.H Q .X",
".X8.t._ @.a .X8.Y.@.%.@.@.@.@.) @.%.#.@.@._ a .X[ p.%.%.$.@.@.@.@.@.@.%.$.@.@.a .X.XY.*.) #.%.@.) #.@.@.@.%.#.@.L .X.XI.#.#.L .X",
".X1.>.) ) a .X2.I.@.#.%.@.@.@.@.*.#.) @.@.@.P .X[ =.@.@.@.%.@.@.@.) %.$.@.@._ n .X.XY.*.) @.@.*.#.@.@.) %.#.@.@.P .X.Xq.@.@.n .X",
".X$.*.) ) K .X{ 6.) @.@.*.) @.&.@.@.@.@.@.#.P .X~ =.@.@.@.#.%.@.) %.$.@.@.@.#.P .X.Xq.@.@.@.@.@.%.@.) %.$.` @.#.I .X{ >.#.) P .X",
".X) @.@.#.K .X~ =.#.) ) @.&.*.@.@.@.@.@.@.@.K .X.X#.#.#.@.@.@.%.$.$.@.#.@._ =.I .X.X#.#.@.! ) @.@.*.*.%.@.@.@.@.P .X! =.@.#.P .X",
".X^ #.@.) 8 .XR :.H @.D A $.&.) ) W S @.@.S 9 .X~ =.D ) @.@.@.*.I 4 A W ) ! ) K .X.X#.@.@.D A ! H $.$.W S @.@.S 9 .X^ =.@.! n .X",
".Xg n n 2 .X.XL V 7 7 6 p 6 6 a < < 3 6 9 n a .X.XV 6 8 9 9 a 9 < 2 : - < - 5 a .X.XB 5 7 7 6 3 8 8 6 p < 6 7 n a .X.XB V n 2 .X",
".X.X.X.X.X.X.X.X.X.X.X.X.X.X.X.X.X.X.X.X.X.X.X.X.X.X.X.X.X.X.X.X.X.X.X.X.X.X.X.X.X.X.X.X.X.X.X.X.X.X.X.X.X.X.X.X.X.X.X.X.X.X.X.X",
".X.X . .[ 1.X.$.] { X. ..X.X1.~ .X.X.X~ {  .{  .$.{ { [ X.o..X .~ .X.X.X.X<. ...X.<.{ { { { .X.X1.[ .X.X.XX.^ ~ Q E Q ~ [ { .X.X",
".XX.).I.).W.I.u.>.0.:.=.:.u.I.y.5 .Xo.Q.L.I.!.I.P.e.;.6.,.=.q.I.p.Q .X[ ).I.!.!.I.i.>.,.=.,.:.0.I.p.L .X] ~.!.!.!.I.I.!.u.;.~ .X",
".X9.!.%.0.*.%.@.%.#.@.@._ ) %.@.K .X1.!.5.*.w.$.@.@.$.#.@.@.#.5.,.Q .X1.(.*.0.>.*.@.) @.$.$.` @.#.#.L .X<.`.`.P.t.e.0.5.%.#.L .X",
".X4.I.%.@.&.@.` @.@.@.@.@.@.@.H a .X4.Y.) H ` Z &.7.@.@.@.@.@.@.@.L .X..Y.*.@.H @.&.&.` @.@.@.@.@.) L .X1.R.w.@.H H H F 9.7.5 .X",
".X..,.&.7.&.9.#.) @.@.@.@.@.@.) a .X8.I.@.#.@.&.m.9.H @.@.@.@.@.@.a .X{ ,.#.@.%.2.&.7.&.H @.@.@.#.) 9 .X1.I.#.@.@.) @.9.m.7.7 .X",
".X^ >.4.m.9.H 8.@.@.@.@.@.@.#.#.K .X1.i.@.@.&.n.c.@.@.@.@.) @.@.#.V .X! #.@.@.7.x.m.J 9.$.` @.@.@.@.B .X2.i.@.@.@.@.2.c.9.H a .X",
".XQ 0.&.D.A.v.9.) @.@.@.@._ @.#.P .X~ #.) $.9.9.$.` @.@.@.@.@.@.#.L .XQ #.` &.&.m.D.x.9.@.@.@.@.@.=.P .X1.q.) @.H 7.c.2.@._ a .X",
".XQ 5.2.@.m.m.` #.A A W #.@.@.@.L .X .=.*.1.8.$.@.#.@.@.) ! @.@.W 9 .X.X:.@.%.7._ n.A.S V W #.@.@.@.P .X! =.#.#.2.9.9.) ) ) p .X",
".X~ _ ~ ..8.C D W > 3 n m m m S a .XP _ X.3.m n A A A A m m W W S a .XI #.A m $.X.3.W % 3 b n m m A a .XQ :.) W 3.X.N E m W a .X",
".X.X; O .X.X.X@ @ $ $ .X.X.X.X; .X.X.X2 t .X.X.X@ @ .X@ .X.X.X.Xi .X.X.X2 $ .X.X.XX X .X$ .X.X.X.X; .X.X.X2 e $ e q $ ; e 2 .X.X",
".X.X.X.X.X.X.X.X.X.X.X.X.X.X.X.X.X.X.X.X.X.X.X.X.X.X.X.X.X.X.X.X.X.X.X.X.X.X.X.X.X.X.X.X.X.X.X.X.X.X.X.X.X.X.X.X.X.X.X.X.X.X.X.X"
};
